PathFileType	4	(X/Y/Z)	s01c0402.trc
DataRate	CameraRate	NumFrames	NumMarkers	Units	OrigDataRate	OrigDataStartFrame	OrigNumFrames
200	200	4	48	mm	200	1500	2000
Frame#	Time	racr			lacr			c7			jug			rlel			rdr			llel			ldr			s2			lic			ric			lasi			rasi			rpsi			lpsi			rgt			lgt			rth1			rth2			rth3			rth4			rlfc			rsh1			rsh2			rsh3			rsh4			rlmal			rmmal			rcal			rtoe			rmt5			lth1			lth2			lth4			lth3			llfc			lsh1			lsh2			lsh3			lsh4			llmal			lmmal			lcal			ltoe			lmt5			SBIKE			LBIKE			RBIKE			
		X1	Y1	Z1	X2	Y2	Z2	X3	Y3	Z3	X4	Y4	Z4	X5	Y5	Z5	X6	Y6	Z6	X7	Y7	Z7	X8	Y8	Z8	X9	Y9	Z9	X10	Y10	Z10	X11	Y11	Z11	X12	Y12	Z12	X13	Y13	Z13	X14	Y14	Z14	X15	Y15	Z15	X16	Y16	Z16	X17	Y17	Z17	X18	Y18	Z18	X19	Y19	Z19	X20	Y20	Z20	X21	Y21	Z21	X22	Y22	Z22	X23	Y23	Z23	X24	Y24	Z24	X25	Y25	Z25	X26	Y26	Z26	X27	Y27	Z27	X28	Y28	Z28	X29	Y29	Z29	X30	Y30	Z30	X31	Y31	Z31	X32	Y32	Z32	X33	Y33	Z33	X34	Y34	Z34	X35	Y35	Z35	X36	Y36	Z36	X37	Y37	Z37	X38	Y38	Z38	X39	Y39	Z39	X40	Y40	Z40	X41	Y41	Z41	X42	Y42	Z42	X43	Y43	Z43	X44	Y44	Z44	X45	Y45	Z45	X46	Y46	Z46	X47	Y47	Z47	X48	Y48	Z48	
1500	7.5000	728.249992	1277.899404	-137.626307	725.841744	1217.247432	-511.460340	733.452878	1371.276755	-333.224688	701.452584	1207.052087	-314.308608	573.586654	1077.774445	20.644452	701.792586	889.455733	-51.502969	522.696526	1017.147018	-608.784751	671.569467	880.798249	-483.130524	190.299332	1219.947383	-272.806267	339.310075	1203.945951	-468.060587	358.242449	1209.624195	-134.232941	342.824650	1149.143288	-434.932942	375.469369	1157.003689	-160.110173	226.072656	1257.579074	-226.063432	216.711123	1257.100162	-331.539363	300.349007	1095.687756	-94.011262	281.998219	1073.762210	-470.075117	379.784617	988.353696	-85.392121	431.420131	923.006809	-90.067886	481.469304	848.563889	-101.049397	472.327217	953.764814	-113.006576	500.968831	742.416733	-123.148702	399.819351	683.569358	-86.268221	334.966082	629.447614	-87.666667	261.843460	578.784391	-92.226868	365.428145	589.551308	-121.436776	161.781977	523.954564	-103.177131	199.737093	466.744782	-130.281064	131.703505	553.231700	-160.945901	165.118985	283.709423	-143.026315	117.607098	381.233007	-75.799660	335.708932	954.835131	-467.638338	394.391793	897.440172	-465.594672	438.879674	933.667682	-459.415430	457.049773	832.257946	-444.084931	509.916310	726.247930	-422.686645	431.036898	643.891620	-454.875910	396.642887	564.163462	-449.541422	360.879347	487.148640	-437.621721	449.430376	544.159981	-424.239861	304.614452	372.864344	-425.154841	341.490742	378.801626	-344.997014	243.252756	356.587506	-384.351227	503.443936	248.380062	-384.547167	398.584013	257.032346	-452.863011	-229.452765	890.807788	-256.641628	-22.906135	80.176048	-456.545969	-22.839469	80.610277	-56.325546	
1501	7.5050	728.275553	1278.424328	-135.828668	726.717501	1217.086032	-509.756391	733.682793	1371.416097	-331.537594	702.275456	1207.191549	-312.672675	573.725329	1077.616357	21.522395	701.636496	889.385018	-51.697735	522.919248	1017.906969	-607.835813	671.490780	880.833977	-482.682499	190.252858	1218.358004	-273.585471	339.510807	1201.665402	-468.038466	357.769769	1209.456637	-134.610394	343.166604	1147.377066	-435.338984	375.085890	1156.835833	-160.429468	225.473074	1256.624870	-227.067307	216.736410	1255.442061	-332.547394	300.467213	1096.236118	-93.907091	280.706699	1070.534239	-469.674502	382.524278	990.850148	-84.718123	436.349843	927.016636	-89.189267	488.691300	854.045115	-100.970415	476.329450	958.697725	-113.281603	509.624087	748.402253	-122.437106	406.920129	689.830830	-85.377146	341.283875	636.622705	-87.159258	267.575505	586.899366	-92.400365	370.812636	596.441670	-121.355965	166.190823	533.685782	-103.137120	204.141275	476.726977	-130.476678	135.677628	563.200701	-161.059805	169.927879	293.850358	-143.188197	122.142445	391.197904	-75.921486	331.632803	950.448349	-466.823617	389.780457	892.688252	-464.948106	434.219973	926.759842	-459.142021	449.827026	825.032054	-442.862499	501.637608	719.017838	-422.411757	423.796585	635.861594	-455.149306	390.404794	555.884401	-449.478618	355.601585	478.495112	-437.531934	443.356916	536.609827	-424.059852	300.365492	363.340927	-424.707022	339.674656	371.404406	-346.175178	239.527207	347.944280	-384.326496	498.701440	237.144391	-383.759169	394.330020	247.127067	-452.640795	-229.442303	890.787485	-256.582067	-22.888165	80.162189	-456.541666	-22.842880	80.572612	-56.314202	
1502	7.5100	728.324127	1278.983899	-133.714756	727.570081	1217.011613	-508.020084	733.854748	1371.599281	-329.682985	703.155745	1207.394541	-310.942040	573.700071	1077.313974	22.374024	701.510672	889.297651	-52.037930	523.182234	1018.967343	-607.019800	671.434329	880.846360	-482.212135	189.990632	1217.002143	-274.632291	339.713182	1199.274899	-468.140336	357.213617	1209.393160	-135.043336	343.550963	1145.621441	-435.747559	374.714849	1156.787620	-160.734548	224.907430	1255.657424	-228.141002	216.796895	1253.700652	-333.599447	300.608716	1096.790298	-93.743612	279.169281	1067.355120	-469.169518	385.482902	993.692038	-84.109885	441.240469	931.444207	-88.334064	495.650109	859.939453	-100.283844	480.103378	964.081644	-113.198007	517.850948	754.388368	-121.619000	413.962437	696.286079	-84.531558	347.661538	644.018098	-86.521898	273.183480	595.529915	-92.197228	376.441062	603.980836	-120.950487	170.178646	543.901205	-103.331443	208.710209	486.857166	-130.877739	139.551915	573.196172	-161.213834	175.793337	304.139999	-143.427148	127.292271	401.144071	-76.045596	327.285652	946.268615	-465.987986	384.991986	888.071334	-464.391576	429.173011	919.884913	-459.382951	442.254439	817.946606	-441.760995	493.207358	711.997058	-421.981695	416.418657	627.961854	-455.565395	384.028732	547.613597	-449.503113	349.981005	469.829987	-437.544103	436.954025	529.014483	-423.774106	295.700115	354.349149	-424.562506	336.797174	364.129604	-347.259819	235.349127	339.701540	-384.288654	493.717765	226.637635	-383.395866	389.479425	237.395860	-452.372363	-229.430181	890.779261	-256.542213	-22.894092	80.158861	-456.532250	-22.838870	80.578084	-56.295781	
1503	7.5150	728.229718	1279.853793	-131.598827	728.409942	1217.088467	-506.229808	734.067391	1371.855169	-327.693543	704.019985	1207.872081	-308.993665	573.453165	1076.923904	23.310520	701.342218	889.209671	-52.416450	523.652466	1019.977113	-606.115276	671.363316	880.917404	-481.741086	189.708724	1215.720219	-275.874103	339.943372	1197.105943	-468.230585	356.734861	1209.343157	-135.318665	343.939994	1143.871361	-436.074206	374.371623	1156.689330	-160.864343	224.386725	1254.703412	-229.303108	216.918081	1252.051412	-334.714574	300.724181	1097.447899	-93.628154	277.657393	1064.409807	-468.672974	388.368790	996.900470	-83.460799	445.967354	936.110515	-87.444035	502.291130	866.165830	-99.297307	483.686950	969.680072	-112.805503	525.461577	760.361634	-120.581235	421.185041	702.868843	-83.532005	354.093242	651.617775	-85.833602	278.796285	604.444980	-91.907973	382.122282	611.511774	-120.734673	174.409047	554.231621	-103.550872	213.507278	497.026870	-131.502034	143.150962	583.024970	-161.130975	182.541171	314.478154	-143.612842	132.869323	410.847273	-76.254070	322.830737	942.389557	-465.328988	380.058337	883.626641	-463.932210	423.983629	913.255846	-459.533401	434.369526	811.142940	-440.788489	484.523148	705.047171	-421.752255	409.138024	620.225975	-456.174292	377.306511	539.355583	-449.619678	344.050677	461.270909	-437.636022	430.247176	521.404519	-423.383497	290.747353	345.718061	-424.493974	332.938630	357.008665	-348.252792	230.721053	331.881105	-384.237815	488.097093	216.444845	-382.938536	384.046067	228.051191	-452.145113	-229.439350	890.792371	-256.543519	-22.897089	80.178343	-456.485601	-22.819536	80.554728	-56.266585	
